<?xml version="1.0" encoding="utf-8"?>
<!-- Generator: Adobe Illustrator 24.0.1, SVG Export Plug-In . SVG Version: 6.00 Build 0)  -->
<svg version="1.1" id="Layer_1" xmlns="http://www.w3.org/2000/svg" xmlns:xlink="http://www.w3.org/1999/xlink" x="0px" y="0px"
	 viewBox="0 0 180.8 305.5" style="enable-background:new 0 0 180.8 305.5;" xml:space="preserve">
<style type="text/css">
	.st0{fill:#999999;}
</style>
<title>zeus_1</title>
<path class="st0" d="M27.6,302.3c0.5-3.4,1-6.6,1.5-9.9c3.5-22.6,7-45.1,10.5-67.7l4.2-27.1c0-0.1,0-0.2,0-0.2v-0.1
	c0.3-2.4,0.4-3.4-0.2-4.1c-0.3-0.3-0.8-0.5-1.2-0.5c-1.1,0.1-2.2,0.4-3.2,0.8c-1.4,0.6-2.9,0.9-4.4,1.1c-0.9,0-1.1-0.6-1.8-4.8
	c-0.6-3.7-1.2-7.5-1.8-11.2c-0.8-5.3-1.7-10.8-2.6-16.2c-0.3-1.7,0.5-2.7,1.6-4l0.4-0.5c0.7-0.9,1.3-1.8,0.9-2.7s-1.5-1.1-2.4-1.2
	s-2.1-0.3-3.2-0.5c-0.8-0.1-1.5-0.3-2.3-0.4c-0.3,0-0.5-0.1-0.7-0.2c0.1-0.3,0.2-0.5,0.4-0.7l0.5-0.7c0.8-1.2,1.7-2.5,2.5-3.8
	c0.1-0.1,0.2-0.3,0.3-0.4c0.7-0.7,1-1.7,0.6-2.6c-0.4-0.8-1.2-1.2-2-1.1c-0.2,0-0.4,0-0.6,0h-0.4h-2.7h-6.5c-2.7,0-4.9,0-7,0.1H7.4
	c-1,0-1.6-0.1-1.9-0.4s-0.3-0.8,0-2.2c1.1-4.6,2.2-9.3,3.2-13.8c1.1-4.8,2.2-9.8,3.4-14.7c0.8-2.7,0.1-5.6-1.8-7.6
	c-1.6-1.9-3.2-3.8-4.7-5.8s-3-3.8-4.6-5.6c-1.3-1.6-1.4-2.7-0.4-4.5C3.4,84,6,78.9,8.6,74c5.4-10.3,11-21,17.3-30.9
	c3.8-6,5.2-12.4,6.5-18.6C33,21,33.9,17.5,35,14c0.9-2.9,1.6-5.9,2-8.9c0.3-2,1.2-2.7,3.3-2.7c11.4-0.1,23-0.3,34.2-0.5l6.9-0.1
	c23.3-0.4,46.5-0.9,69.8-1.3c1.3,0,2.6-0.1,3.9-0.2c1.3-0.1,2.9-0.2,4.3-0.2h0.5c1.5,0,1.9,0.1,2,0.2c0,0.8-0.2,1.6-0.5,2.4
	l-8.2,27.1c-2.3,7.8-4.7,15.6-7,23.3c-5,16.5-9,30-12.8,42.7c-0.7,2.3-1,3.5-0.4,4.3s1.9,0.9,4.1,0.9h41.6c0.3,0,0.5,0,0.8,0
	c0.2,0,0.5,0,0.7,0c0.5,0,0.5,0.1,0.6,0.2c0.1,0.1,0,0.4-0.6,1.1c-0.2,0.2-0.4,0.4-0.6,0.7c-7.7,10.2-15.3,20.4-23,30.7l-19.5,25.9
	l-24.6,32.8l-25.9,34.5c-17,22.5-34.9,46.4-58.3,77.4c-0.1,0.2-0.2,0.3-0.3,0.5c-0.2,0.4-0.5,0.7-0.8,1
	C27.3,304.4,27.4,303.4,27.6,302.3z M47.6,194.2l-14.7,95l2,0.6l5.3-7c5-6.7,10-13.4,15.1-20.1c0.9-1.3,1.3-3,0.9-4.5
	c-0.3-2-0.6-3.9-0.9-5.9c-0.8-4.9-1.6-10.1-2.4-15.1c-0.4-1.9-0.1-3.8,0.7-5.5c1-2.3,2-4.6,3-6.9c1.4-3.3,2.8-6.6,4.4-9.9
	c0.5-1.1,1.1-2.6,0.4-3.8c-0.5-0.9-1.5-1.3-3-1.5c-1.1,0-2.1-0.4-2.8-1.2c-0.5-0.7-0.5-1.8-0.1-3.2c0.4-0.9,0.3-1.9-0.2-2.7
	c-0.5-0.6-1.2-0.9-1.9-0.9c-1.2-0.1-1.5-0.6-1.9-2.2c-0.3-1.1-0.7-2.2-1-3.2c-0.1-0.5-0.3-0.9-0.4-1.4l-0.2-0.8L47.6,194.2z
	 M61.7,221c-1.8,4.3-3.7,8.7-5.5,13.1c-0.3,0.9-0.3,1.9-0.1,2.9c0.8,5.3,1.6,10.6,2.4,15.1c0,0.1,0,0.3,0,0.4
	c-0.1,0.9,0.4,1.9,1.3,2.2c0.2,0.1,0.4,0.1,0.6,0.1c0.8-0.1,1.5-0.6,1.8-1.3c0.1-0.1,0.1-0.2,0.2-0.3c1.8-2.4,3.6-4.7,5.4-7.1l3.1-4
	c0.8-0.9,1.2-2.2,0.9-3.4c-1.5-5.4-2.9-10.9-4.4-16.3l-1.6-5.8l-2-0.1L61.7,221z M71.2,212.1c-0.8-0.1-1.6,0.3-2.1,0.9
	c-0.5,0.8-0.6,1.7-0.3,2.5c1.6,5.8,3.2,11.6,4.8,17.4c0.3,1.2,0.9,1.9,1.8,1.9l0,0c0.8-0.1,1.4-0.6,1.8-1.2l2-2.8l4.4-6
	c0.6-0.9,0.8-2,0.5-3.1c-1.6-6.4-5.7-9.6-12.2-9.6L71.2,212.1L71.2,212.1z M81.1,205l0.2,0.6l0.8,2.3c0.6,1.8,1.2,3.6,1.9,5.3
	c0.2,0.5,0.3,0.9,0.4,1.4c0.5,1.7,1.1,3.8,3.1,3.9h0.1c1.6,0,2.5-1.6,3.3-3c0.3-0.6,0.6-1.1,1-1.6c0.5-0.5,0.8-1.3,0.7-2
	c-0.1-0.8-0.6-1.5-1.3-1.9l-6.1-4.4l-2.8-2L81.1,205z M75.2,209.2c0.2,0,0.4,0.1,0.6,0.1c0.3,0.1,0.6,0.1,0.9,0.1
	c0.7,0,1.3-0.4,1.6-1c0.7-1.3-0.2-3.3-0.9-4.4c-1-1.7-2.8-3.8-4.5-3.8h-0.1c-1.6,0.1-3.3,0.2-4.9,0.3c-1.9,0.1-4,0.3-6,0.3
	c-1.7-0.1-3.2,1.2-3.3,2.9c0,0,0,0,0,0c-0.4,2.4,1.5,2.9,2.5,3.2h0.1c3.2,0.8,6.4,1.3,9.6,1.7c1.3,0.1,2.5,0.3,3.7,0.5h0.2H75
	L75.2,209.2z M75.7,197c2.1,0,4.1,0.6,5.7,1.9c2.1,1.6,4.2,3.1,6.4,4.6c1.6,1.2,3.4,2.4,5,3.6c0.7,0.6,1.5,0.9,2.4,1
	c1.1-0.1,2.1-0.8,2.7-1.8c1.8-2.6,3.7-5.1,5.6-7.4c0.8-0.7,1.1-1.8,1-2.9c-0.3-1.1-1.4-1.7-2.4-2.1c-5.6-2.4-11.3-4.8-16.8-7.2
	c-2.9-1.2-5.7-2.5-8.6-3.7c-0.6-0.2-1.1-0.4-1.7-0.6l-0.7-0.2l-0.2-0.1l-0.3,0.1l-0.9,0.3c-0.6,0.2-1.3,0.4-1.9,0.6l-3.2,1
	c-3.7,1.2-7.5,2.5-11.3,3.8c-0.2,0.1-0.5,0.1-0.8,0.2c-1.1,0.1-2.1,0.7-2.8,1.6c-0.4,0.8-0.4,1.7-0.1,2.5c0.1,0.5,0.3,0.9,0.3,1.4
	c0.4,1.9,0.9,4.5,4.4,4.5c0.3,0,0.5,0,0.8,0c2.9-0.3,5.9-0.5,8.8-0.6c2.4-0.1,4.9-0.3,7.3-0.5C74.8,197,75.3,197,75.7,197z
	 M83.2,168.2c-2.8,0-3.9,2.4-6.2,7.6l-0.1,0.1c-0.5,0.9-0.6,1.9-0.3,2.8c0.4,0.8,1.1,1.5,2,1.7c7.8,3.3,15.8,6.8,23.5,10.1l3.1,1.4
	c0.6,0.3,1.2,0.4,1.8,0.4c0.8,0,1.6-0.4,2.1-1.1c1.6-2.2,3.3-4.3,4.9-6.5l2.8-3.7l-1.2-0.4c-6.4-2.2-12.5-4.8-18.4-7.4
	c-2.2-0.9-4.4-1.9-6.7-2.8l-0.2-0.1C86.9,169,84.8,168.1,83.2,168.2L83.2,168.2z M38.2,155.6c-0.2,0-0.5,0-0.7,0.1
	c-2.1,0.4-5.8,5.7-5.5,7.8c0.5,3.4,1.1,6.8,1.6,10.2c0.7,4.5,1.5,9.2,2.2,13.8c0.1,0.7,0.4,2.8,2.5,2.8c0.6,0,1.2-0.2,1.8-0.4
	c2.4-0.8,4.9-1.6,7.3-2.4c1.5-0.5,3-0.9,4.5-1.4c4.9-1.6,5.1-2,4.4-6.9V179c-0.2-1.2-0.5-3.5-3.1-3.5h-0.5c-1.1,0-2.2,0.5-3,1.3
	c-0.5,0.7-0.7,1.7-0.5,2.6c0.1,0.3,0.1,0.7-0.1,1c-0.4,0.3-0.9,0.5-1.5,0.5h-0.4c-0.5,0-1-0.1-1.2-1.3c-0.1-0.8-0.3-1.7-0.4-2.5
	l-0.4-2.4c-0.1-0.4-0.1-0.7,0.1-1.1c0.3-0.3,0.7-0.4,1.1-0.5l2.7-0.4c1.3-0.2,2.7-0.4,4.1-0.6c1.2-0.1,2.1-0.3,2.8-0.4
	c0.6-0.1,1.2-0.2,1.8-0.2c0.5,0,0.6,0,1.2,3.6c0.1,0.4,0.2,0.9,0.2,1.4s0.1,0.9,0.2,1.3c0.1,0.7,0.2,1.4,0.3,2.1
	c0,1.3,1,2.3,2.3,2.4h0.3c3.3,0,9.5-3.5,10.9-6.3c1.2-2.4,2.5-4.7,3.7-7.1c3-5.8,6.1-11.9,9.3-17.7c3-5.6,3.6-10.4,1.7-15.3
	c-0.1-0.2-0.1-0.4-0.2-0.6c-0.2-0.8-0.6-2.2-2.1-2.2c-0.3,0-0.6,0.1-0.9,0.1c-1.4,0.5-2.9,0.8-4.3,1.1c-4.1,0.9-8.4,1.9-11.4,5.9
	c-1.2,1.6-2.6,3.1-4,4.6c-0.7,0.8-1.5,1.6-2.2,2.4c-2.1,2.4-4.2,4.9-6.5,7.5l-5.4,6.2l8.4-2.9l11.2-4l0.3-0.1c0.5-0.2,1-0.3,1.5-0.4
	c0.2,0,0.6,0,1.1,1.1c0.2,0.4,0.3,0.9,0.2,1.4c-0.2,0.4-0.9,0.6-1.7,0.9l-0.4,0.1l-9.8,3.5l-4.6,1.6l0.1,2.2l1-0.1l3.2-0.4
	c2.5-0.3,5.1-0.6,7.6-0.8l0.6-0.1c0.4-0.1,0.8-0.1,1.2-0.1c0.8,0,1.4,0.1,1.6,1.7c0.1,0.4,0,0.9-0.2,1.3c-0.3,0.3-1,0.3-1.8,0.4
	c-0.4,0-0.7,0-1.1,0.1c-1.5,0.2-3.1,0.3-4.6,0.5s-3.1,0.3-4.7,0.5c-1.1,0.1-2.2,0.2-3.4,0.2c-5.7,0-9.6-2.1-12.5-6.6
	c-0.7-1.1-1.5-2.1-2.4-3.1c-0.2-0.3-0.5-0.6-0.7-0.9C40.5,156.1,39.4,155.5,38.2,155.6L38.2,155.6z M90.8,155.3
	c-3.5,0-4.1,1.3-6.1,5.3l-0.2,0.3c-0.5,0.8-0.6,1.8-0.4,2.8c0.5,0.9,1.3,1.6,2.3,1.9c8.2,3.3,16.5,6.8,24.5,10.1l1.1,0.5
	c1.1,0.5,2.3,0.8,3.4,0.8h0.2h0.9c1.7,0,3.3-0.1,4.4-1.6c2.6-3.5,5.3-7,7.8-10.4l0.6-0.8c0.6-0.6,0.8-1.5,0.8-2.3
	c-0.1-0.7-0.6-1.3-1.2-1.6c-2.1-1.4-4.2-2.8-7.1-2.8c-0.6,0-1.2,0.1-1.8,0.2c-0.8,0.2-1.6,0.4-2.4,0.6c-1.4,0.5-2.9,0.7-4.4,0.8
	c-1.7,0-3.2-0.7-4.3-1.9c-0.4-0.3-0.9-0.5-1.5-0.5h-0.3l-3.9-0.4c-3.1-0.3-6.3-0.6-9.5-0.9C92.7,155.3,91.7,155.2,90.8,155.3
	L90.8,155.3z M61.1,142.5c-6,1.1-11.4,4.2-16.9,9.7c-0.5,0.5-0.9,1.2-0.9,1.9c0.1,1,0.7,2,1.5,2.6c0.3,0.3,0.6,0.6,0.8,0.9
	c0.4,0.8,1.2,1.3,2.1,1.4c0.7,0,1.4-0.4,1.8-1l8.8-10l5.3-6.1L61.1,142.5z M130.5,143.2c-0.7,0-1.6,0.4-1.6,2.5c0,0.3,0,0.6,0,0.9
	c0,1.8,0.1,3.4-1,4.8l-0.1,0.1c-0.7,0.7-1,1.6-1,2.5c0.1,0.6,0.5,1.2,1,1.5c0.3,0.2,0.6,0.4,0.9,0.7c1.1,1.1,2.7,1.8,4.2,1.9h0.3
	c1.3-0.1,6.2-7.2,6.3-8c-0.1-0.9-0.6-1.7-1.4-2.1l-0.1-0.1l-2.1-1.4c-1.2-0.9-2.5-1.8-3.8-2.7C131.7,143.5,131.1,143.2,130.5,143.2
	L130.5,143.2z M114,90.6c-2.2,0-4.4,1-5.8,2.7c-3.1,3.4-6.1,6.4-9.1,9.3c-1.8,1.5-2.5,3.9-1.7,6.1c3.6,13.4,7,26.6,10.5,40.1
	c1,3.9,2.9,6.1,5.8,6.8c0.5,0.1,1.1,0.2,1.7,0.2c3.5,0,7.7-2.3,9.4-5.1c0.9-1.7,1.2-3.6,0.9-5.5v-0.7c-0.2-2.1,0.5-4.1,1.9-5.7
	c2.6-3.1,5-6.3,7.4-9.4l2.8-3.6l0.2-0.3c1-1,1.5-2.3,1.4-3.7c-0.8-4.4-1.7-9.7-2.8-15c-0.3-1.5-1.6-2.5-3.1-2.4
	c-0.3,0-0.6,0-0.9,0.1c-0.7,0-1.3,0.4-1.7,0.9c-0.4,0.7-0.4,1.6-0.2,2.3c0,0.2,0.1,0.3,0.1,0.4c0.5,3.4,1.2,6.9,1.9,10.4
	c0.2,1.2,0,1.6-1.2,1.8c-0.2,0-0.4,0.1-0.6,0.1c-0.5,0-1-0.1-1.2-1.3c-0.1-0.8-0.3-1.6-0.5-2.4c-0.4-1.7-0.7-3.4-0.9-5.2
	c-0.2-5.4-3.6-8.6-7.3-11.1c-1.1-0.8-2.4-1.2-3.8-1.2c-1.9,0-3.7,0.9-4.9,2.3c-0.4,0.5-0.9,1-1.3,1.6c-0.7,0.9-1.5,1.8-2.3,2.6
	c-3,2.7-1.8,5.6-0.4,8.3l0.8,1.5l1.8-3.4c0.6-1.2,1.2-2.3,1.7-3.4c1.7-3.3,2.3-4,3.5-4c1.3,0.1,2.6,0.4,3.8,0.9
	c1.2,0.4,1.4,0.7,1.2,1.7c-0.3,1.5-0.6,1.6-0.9,1.6c-0.2,0-0.4,0-0.6-0.1c-0.5-0.1-0.9-0.2-1.4-0.2c-2.2,0-3.1,1.8-3.6,3.1
	c-0.3,0.7-0.6,1.4-1.1,2.3c-0.2,0.5-0.5,1-0.8,1.6l-1.3,2.8l2.6-1.6c2.6-1.6,4.1-2.5,5.1-2.5s1.8,0.9,4,3.1l0.3,0.3
	c0.3,0.3,0.6,0.6,0.9,0.9c0.6,0.5,0.9,0.9,0.9,1.3s-0.4,0.9-0.8,1.2c-0.3,0.3-0.7,0.6-1.1,0.7c-0.4,0-0.9-0.5-1.4-1
	c-1.3-1.3-2.4-2.2-3.7-2.2s-2.4,0.8-3.7,2.1c-0.3,0.3-1.2,1.1-0.9,2s1.3,1.2,1.8,1.3c0.3,0.1,0.7,0.1,1,0.2c1.1,0.1,1.4,0.2,1.5,0.8
	c0.3,1,0.6,2,0.9,3c0.9,2.5,1.5,5.2,1.6,7.9c0,1.2-1.2,1.9-3,3c-1,0.5-1.8,1.1-2.7,1.8l-0.2,0.1c-0.3,0.3-0.8,0.6-1.2,0.6
	c-0.3,0-0.6-0.2-0.9-0.7c-0.4-0.4-0.6-0.9-0.6-1.4c0.1-0.4,0.4-0.8,0.8-1c0.7-0.5,1.3-1,1.9-1.5c0.3-0.2,0.6-0.5,0.9-0.7
	c2.1-1.6,1.5-3.6,1-5c-0.1-0.4-0.2-0.8-0.3-1.2c-0.1-1.8-1.6-3.2-3.4-3.2h-0.3h-0.6c-3.4,0-5-1.8-5.4-5.9c-0.1-1.2-0.4-2.5-0.9-3.6
	c-3-6.4-1.8-11.6,4.2-17.4c2.1-2.2,4.9-3.6,8-3.7h0.6c2.5,0,4.2,1.3,6.2,3.1c0.1,0.1,0.3,0.3,0.4,0.4c0.5,0.7,1.3,1.2,2.2,1.3
	c0.5,0,1-0.2,1.4-0.6c1.4-1.5,1.5-3.7,0.2-5.3c-1.6-2.4-3.6-4.6-6.9-4.6c-0.4,0-0.8,0-1.3,0.1c-0.8,0.1-1.7,0.2-2.5,0.2
	c-1.1,0-2.1-0.1-3.2-0.2L114,90.6z M94.5,137.7c-0.8-0.1-1.6,0.2-2.1,0.8c-0.4,0.6-0.4,1.4-0.1,2.1c0.9,2.7,0.5,5.8-1.3,8.1
	c-0.6,0.6-0.7,1.5-0.4,2.2c0.5,0.7,1.3,1.2,2.2,1.1c1.6,0.1,3.3,0.3,5,0.5l2.1,0.2c0.8,0,1.5,0.1,2,0.1c1,0.2,2-0.2,2.8-0.8
	c0.7-0.9,0.4-2.2-0.3-4.9l-0.6-2.1c-1.7-6.8-2-7.1-8.8-7.2L94.5,137.7z M47.3,124.9c-1.4,0-2.6,0.6-3.4,1.8
	c-1.7,2.6-3.4,5.2-5.2,7.8c-2.9,4.4-5.9,8.8-8.8,13.2l-0.1,0.2c-0.7,0.7-0.7,1.9,0,2.6c0.1,0.1,0.2,0.2,0.3,0.2c1.3,1,4.3,1,5.2,1
	s4.2-0.1,5.7-1.2c3.3-2.6,6.6-5.4,10.3-8.6c2.7-2.2,5-3.9,8.2-4.7c4.8-1.2,9.5-2.6,14.5-4.1c2.1-0.6,4.2-1.3,6.4-1.9l2.3-0.7l-2.2-1
	c-0.3-0.1-0.6-0.3-0.8-0.4c-0.3-0.2-0.7-0.3-1.1-0.4L48,124.8C47.8,124.8,47.5,124.8,47.3,124.9z M141.2,127.6
	c-0.9,0.1-1.6,0.5-2.1,1.3L139,129l-1.6,2c-0.6,0.8-1.3,1.6-1.9,2.4c-2.1,2.7-3.2,4-3,5.4c0.2,1.4,1.6,2.5,4.4,4.4h0.1l1.1,0.8
	c1.8,1.3,2.7,2,3.7,2c1.2,0,1.9-0.9,3.3-2.8c0.3-0.4,0.6-0.9,1-1.4c4.7-6.2,4.7-6.8-1.5-11.9c-0.2-0.2-0.5-0.4-0.7-0.6
	c-0.7-0.8-1.6-1.4-2.5-1.7L141.2,127.6L141.2,127.6z M62.1,94.6c-0.4,0-0.9,0.2-1.3,0.4l-1.9,0.8c-5.2,2.3-10.6,4.7-15.8,7.1
	c-0.9,0.4-1.6,1.1-2.2,1.8c-2.9,3.5-5.8,7-8.7,10.5l-4.8,5.8c-1,0.9-1.4,2.3-1.2,3.6c0.8,3.2,1.7,6.4,2.6,10l1.6,6.3l1.1-1.6
	c0.9-1.4,1.8-2.6,2.7-3.8c1.8-2.3,3.4-4.8,4.7-7.4c2.2-4.6,5-6.7,8.8-6.7c1.3,0,2.6,0.2,3.8,0.6c0.3,0.1,0.7,0.1,1,0.2h0.4l7.1,1
	l22.5,3c0.2,0,0.5,0.1,0.7,0.1c0.6,0,1.3-0.2,1.7-0.7c0.5-0.7,0.6-1.5,0.4-2.3c-0.5-3.4-1.3-6.9-5.2-8.8c-1.5-0.8-2.9-1.8-4.2-2.8
	l-1.5-1.1c-2.7-1.9-4.1-3-4.5-4s0-2.7,0.9-5.9v-0.1c0.3-1.2,0.6-2.2,0.1-2.8c-0.2-0.3-0.5-0.4-0.9-0.4h-0.2c-0.3,0-0.6,0.1-0.9,0.1
	c-2.1,0-3.7-1.1-5.5-2.2l-0.5-0.3C62.5,94.7,62.3,94.6,62.1,94.6L62.1,94.6z M20.9,140.2c0.7,0,1.4,0,2,0h0.2
	c0.9,0.1,1.9-0.2,2.5-0.9c0.5-0.9,0.6-1.9,0.2-2.8c-1.4-5.3-2.6-9.9-3.5-14.2c-0.6-2.7-1.9-5.2-3.8-7.2c-0.1-0.1-0.2-0.2-0.2-0.3
	c-0.3-0.6-0.9-1-1.6-1.1h-0.2c-1,0.1-1.7,1-1.7,2c0,0.1,0,0.2-0.1,0.3c-0.5,2-0.9,4.1-1.4,6.1c-0.7,3.2-1.5,6.6-2.3,9.9v0.2
	c-1,3.8-1.4,5.6-0.4,6.8s2.8,1.2,6.8,1.2L20.9,140.2L20.9,140.2z M142.9,104.2c-0.9-0.1-1.8,0.3-2.4,0.9c-0.6,0.9-0.7,2.1-0.3,3.1
	l0.1,0.6c0.6,2.3,1,4.6,1.2,6.9c0.4,6.3,3.3,11.3,8.9,15.4c0.6,0.5,1.3,0.8,2.1,0.9c0.9-0.1,1.7-0.6,2.1-1.3c2.7-3.7,5.1-7,7.4-9.9
	c1.7-2.1,0.7-3.8-0.3-4.9l-1.1-1.4c-1.6-1.9-3.3-3.8-4.8-5.8c-1.6-2.2-3.9-4.7-7.1-4.7c-0.6,0-1.2,0.1-1.8,0.2h-1.4h-1
	c-0.4,0-0.8,0-1.1,0L142.9,104.2z M90.4,119.2c-1.8,0-2.3,0.5-2.3,2c-0.1,4.6,2.1,6.6,7.8,6.7h0.7c0.6,0,1.1-0.1,1.5-0.5
	c0.4-0.5,0.6-1.1,0.5-1.7c-0.1-4.4-2-6.3-6.4-6.5C91.4,119.2,90.9,119.1,90.4,119.2L90.4,119.2z M92,115.7l0.3,0.1
	c0.4,0.1,0.8,0.2,1.2,0.2c1,0,1.8-0.7,1.9-1.6c0.4-1.7,0-3.5-1.1-4.9c-0.8-1.2-2.2-2-3.6-2.1c-0.2,0-0.5,0-0.7,0.1
	c-0.8,0.2-1.6,0.3-2.4,0.3c-3.3,0-5.3-1.9-6.6-6c-0.1-0.4-0.3-0.8-0.5-1.1c-0.3-0.5-0.5-1-0.7-1.6c-0.5-1.3-1.1-2.9-2.7-2.9h-0.2
	c-2,0.2-2.3,2-2.6,3.4c-0.1,0.6-0.2,1.1-0.5,1.7c-1.4,2.7-0.7,4.9,2,6.6c2.6,1.6,5.4,3.5,8.7,5.9c1.7,1.3,3.7,2,5.9,2
	c0.5,0,0.9,0,1.4-0.1L92,115.7L92,115.7z M162.7,104.2h-2.1c-1.1,0-1.9,0.4-2.2,1c-0.3,0.8-0.1,1.7,0.6,2.3c0.7,0.9,1.5,1.8,2.2,2.7
	l1,1.2c1.6,2,2.4,2.9,3.5,2.9s1.9-1,3.3-2.9c0.4-0.5,0.7-0.9,1.1-1.4c0.5-0.7,1.1-1.3,1.6-2c0.1-0.1,0.2-0.2,0.3-0.3
	c0.7-0.6,1-1.5,0.7-2.4c-0.3-0.7-1-1.2-1.8-1.1h-0.5H170h-1.8H165l0,0L162.7,104.2z M80,23.1c-1.1,0-2.2,0.2-3.2,0.7
	C64,29.1,49.8,35,32.2,42c-2.2,0.8-4.1,2.5-5.1,4.6c-4,7.5-8,15-12,22.3c-2.9,5.5-5.8,10.9-8.8,16.4c-0.3,0.6-0.6,1.1-0.8,1.5
	c-2.1,3.8-2.2,4.2,0.4,7.2c0.4,0.4,0.8,1,1.3,1.6s1,1.3,1.6,2s1.3,1.6,1.9,2.4c2.1,2.7,4.3,5.3,6.4,7.9l3.4,4.2l0.7-0.8
	c0.7-0.7,0.9-1.7,0.6-2.7c0-0.1,0-0.2-0.1-0.2c-0.4-1.8-0.7-3.5-1.1-5.3c-1.2-5.7-2.4-11.5-3.7-17.3c-0.4-1.3,0-2.7,1-3.6
	c2.7-2.5,5.3-5.1,7.8-7.7l2-2c6.5-6.5,6.6-7,1.7-14.8c-0.6-1-0.6-1.4-0.6-1.5s0.2-0.4,1.4-0.7c4.3-1.1,8.7-2.4,12.9-3.7
	c1.3-0.4,2.6-0.7,3.9-1c2.9-0.6,5.7-1.6,8.4-2.9c5.3-2.9,10.5-5.9,16.3-9.2c5-2.9,7.2-4.1,9.6-4.1c2,0,4.3,0.8,8.6,2.3l0.6,0.2
	c9.2,3.2,18.5,6.3,27.6,9.3c6.8,2.2,13.7,4.6,20.6,6.9c0.6,0.2,1.2,0.3,1.8,0.3c2.1,0,2.8-1.7,3.1-3c0.6-2.5,1.3-5,2.2-7.4
	c0.5-1,0.5-2.1,0.1-3.1c-0.7-1-1.7-1.6-2.9-1.7c-15.6-3.9-31.4-7.9-46.7-11.8l-14-3.5C81.5,23.2,80.8,23.1,80,23.1z M41.9,80.9h-0.4
	c-1.4,0.3-2.4,1.4-2.7,2.8l-0.3,1.1c-1.2,3.6-2.3,7.2-3.5,10.8c-0.9,2.8-1.7,5.5-2.7,8.4l-1.9,5.9l1.8-0.7c1.5-0.6,2.7-1.7,3.5-3.1
	c2.5-3.8,6.1-6.6,10.3-8.1c3.1-1.2,6.2-2.6,9.2-4c1.3-0.6,2.6-1.2,4-1.8l0.3-0.1c0.8-0.3,2.3-0.9,1.7-3c-0.9-3.3-2.7-5-5.3-5
	c-0.9,0-1.7,0.1-2.5,0.4l-0.9,0.2c-0.7,0.1-1.3,0.3-1.9,0.6c-0.9,0.4-1.8,0.6-2.8,0.7c-1,0-2.3-0.3-3.2-2.8
	C43.8,81.2,42.6,80.9,41.9,80.9z M35.7,70.1c-0.8,0.1-1.5,0.5-2,1.1c-3.8,3.8-7.7,7.6-11.5,11.4c-1.3,1-2,2.7-1.8,4.4
	c1.1,5.4,2.2,10.9,3.3,16.2l1.3,6.3h2l0.2-0.6c0.1-0.3,0.2-0.5,0.3-0.8c0.2-0.6,0.5-1.2,0.7-1.8l0.2-0.6c2.5-7.8,5.1-15.8,7.6-23.7
	c0.5-1.7,1.1-2.7,2.4-3.2c0.8-0.2,1.4-0.8,1.7-1.6c0.2-0.9,0-1.8-0.5-2.4c-0.6-0.8-1.1-1.8-1.5-2.7l-0.3-0.5
	C37.4,70.7,36.6,70.1,35.7,70.1z M88.7,104.3c0.4,0.1,0.9,0.1,1.3,0.1c3,0,5.1-2.2,7.1-4.3c0.3-0.3,0.6-0.7,0.9-1l0.1-0.1
	c7.8-8,7.8-8.5,1.2-17.5l-0.1-0.2c-0.6-1.2-1.9-1.9-3.2-1.9c-0.4,0-0.8,0-1.2,0.1c-5,1.2-9.9,2.3-15.8,3.6c-0.9,0.1-1.7,0.6-2.2,1.4
	c-0.3,0.8-0.2,1.8,0.3,2.5c2,3.9,4,7.8,5.9,11.7l1.8,3.6c0.5,1.3,1.8,2.1,3.1,2l0,0C88.2,104.4,88.4,104.4,88.7,104.3z M76.2,66.4
	c-0.3,0-0.6,0-0.9,0.1c-5.6,1.3-11.3,2.6-16.6,3.8c-0.9,0.1-1.7,0.6-2.2,1.4c-0.3,0.8-0.2,1.8,0.3,2.5c1.9,3.5,3.8,7,5.6,10.4
	l3.3,6.3c0.6,1.4,1.9,2.4,3.4,2.4h0.5l0.7-0.1c0.4-0.1,0.9-0.2,1.3-0.2c1.6-0.1,2.7-0.6,3.1-1.4c0.6-1.2-0.1-2.6-0.8-3.5
	c-0.4-0.7-0.8-1.4-1.2-2.2c-0.3-0.7-0.6-1.4-1-2c-0.7-1.3-0.7-1.8-0.6-1.9s0.4-0.5,1.8-0.7c1.8-0.3,3.6-0.8,5.4-1.2
	c1.3-0.3,2.7-0.7,4-0.9c1-0.1,1.9-0.6,2.4-1.5c0.4-1-0.3-2-0.9-2.8c-1.4-1.9-2.9-3.9-4.2-5.8l-0.7-1C78.5,67.1,77.4,66.5,76.2,66.4z
	 M123.9,87.7c2.2,0,3.4,0.5,4.3,1.9l0.1,0.1c0.3,0.7,1,1.1,1.7,1.2l0,0c0.5,0,0.9-0.2,1.2-0.5c1.7-1.5,2.4-3.8,2-6.1
	c-0.2-2.2-1.6-4.2-3.6-5.1c-12.1-5.1-25-10.4-40.5-16.9c-0.8-0.3-1.6-0.6-2.2-0.8L86,61.3l-0.2-0.1h-0.2c-1.6,0.2-3.5,0.6-4.5,2
	c-1,1.4,0.1,2.8,0.8,3.5c0.2,0.2,0.4,0.4,0.6,0.7c0.4,0.6,0.8,1.1,1.2,1.6c0.6,0.7,1,1.4,1.5,2.1c2,3.9,4.5,5.8,7.6,5.8
	c1.5,0,3-0.4,4.3-1.1c0.3-0.2,0.7-0.3,1.1-0.3c0.5,0,1.2,0.2,2.1,1.7c1,1.7,2.2,3.4,3.3,5.1c0.8,1.2,1.6,2.4,2.3,3.6
	c0.7,1.3,2.1,2.1,3.6,2h0.2c2.4-0.1,4.7-0.1,7.3-0.1h0.9c2,0,3.9,0,5.8,0L123.9,87.7z M54.8,52.2c-0.5,0-0.9,0.1-1.3,0.2
	c-4.3,1.3-8.7,2.5-13,3.7l-3.5,1c-1,0.2-1.8,0.7-2.3,1.6c-0.3,0.9-0.1,1.8,0.5,2.5c2.5,4.2,5,8.3,7.5,12.5l3.8,6.4
	c0.5,1.1,1.6,1.8,2.9,1.9l0,0c0.2,0,0.3,0,0.5,0c1.9-0.1,3.9-0.4,4.8-1.8s0.1-3.2-0.8-4.9l-0.5-0.9c-0.6-1.3-1.3-2.6-2.1-3.8
	c-0.5-0.8-0.6-1.2-0.5-1.4s0.2-0.4,1.5-0.7c1.9-0.4,3.9-0.9,5.8-1.3s3.6-0.8,5.4-1.2c0.9-0.2,1.9-0.5,2.2-1.5
	c0.2-0.9-0.1-1.8-0.8-2.4c-0.9-1-1.7-2.1-2.5-3.1c-1.3-1.6-2.6-3.3-4-4.9C57.5,53.1,56.2,52.3,54.8,52.2z M87.6,58.3
	c1.8,0.7,3.4,1.4,5.1,2.1l6.7,2.8c10.5,4.4,21.4,8.9,32.1,13.4c0.7,0.3,1.4,0.5,2.1,0.5c2.1,0,2.6-2.1,2.9-2.9
	c1.2-4.3,2.5-8.7,3.9-13.1c1-2.9-0.7-3.9-2.5-4.5c-16.6-5.5-34-11.4-54.9-18.5c-0.6-0.2-1.2-0.3-1.9-0.3c-1,0-1.9,0.3-2.7,0.8
	c-2.2,1.3-4.4,2.6-6.6,3.8c-1.9,1.1-3.9,2.2-5.8,3.3c-3.3,1.9-4.9,2.8-5.2,4.4s1,3.2,3.3,6c0.6,0.8,1.1,1.5,1.6,2.3
	c1.3,2.1,2.7,4.3,5,4.8c0.3,0.1,0.7,0.1,1,0.1l0,0c2,0,3.9-1.1,5.8-2.2c0.8-0.5,1.7-1,2.6-1.4l5.4-2.3L87.6,58.3z M153.9,3.3h-1.2
	c-6,0.2-12.1,0.3-18.1,0.5c-8.4,0.2-17,0.5-25.5,0.6C102.7,4.6,96,4.7,89.6,4.7C80,4.9,70,5,60.2,5.3l-5.4,0.2
	c-3.8,0.1-7.6,0.2-11.4,0.3c-1.1,0-3.2,0-3.7,2.4c-1.6,6.8-3.2,13.6-4.8,20.7l-2.2,9.5l1.6-0.6l1.6-0.6c0.8-0.3,1.5-0.5,2.1-0.8
	l8.2-3.4c9.8-4.1,20-8.2,30-12.4c1.1-0.5,2.3-0.7,3.5-0.7c0.9,0,1.8,0.1,2.6,0.4c9.2,2.3,18.4,4.7,27.6,7
	c11.1,2.8,22.5,5.7,33.8,8.6c0.7,0.2,1.3,0.3,2,0.3c2.3,0,3-1.7,3.5-3.4c1.5-5.4,3.2-10.9,4.8-16.3c0.8-2.7,1.7-5.5,2.5-8.2
	c0.6-2,0.9-3.1,0.3-4S155.1,3.3,153.9,3.3L153.9,3.3z"/>
</svg>
