<svg id="Layer_1" data-name="Layer 1" xmlns="http://www.w3.org/2000/svg" xmlns:xlink="http://www.w3.org/1999/xlink" viewBox="0 0 180.79 305.48"><defs><style>.cls-1{fill:url(#linear-gradient);}</style><linearGradient id="linear-gradient" x1="210.87" y1="5.82" x2="52.28" y2="217.56" gradientUnits="userSpaceOnUse"><stop offset="0" stop-color="#fec765"/><stop offset="0.88" stop-color="#faa719"/></linearGradient></defs><title>zeus_1</title><path class="cls-1" d="M92.92,304.32c.5-3.41,1-6.63,1.47-9.87q5.24-33.84,10.48-67.68l4.2-27.08a1.94,1.94,0,0,0,0-.24v-.1c.3-2.35.44-3.42-.18-4.13a1.58,1.58,0,0,0-1.25-.51,12.36,12.36,0,0,0-3.22.81,19.4,19.4,0,0,1-4.41,1.15c-.88,0-1.12-.63-1.81-4.82-.61-3.72-1.21-7.51-1.79-11.17-.83-5.31-1.7-10.81-2.64-16.2-.3-1.71.53-2.71,1.57-4l.42-.52c.69-.87,1.28-1.8.9-2.71s-1.49-1.15-2.41-1.25-2.14-.33-3.18-.53c-.75-.15-1.53-.3-2.31-.42a1.63,1.63,0,0,1-.74-.23,3.12,3.12,0,0,1,.39-.74l.46-.69c.83-1.22,1.68-2.48,2.48-3.75.08-.13.19-.27.29-.4a2.41,2.41,0,0,0,.61-2.65,2,2,0,0,0-2-1.14c-.21,0-.43,0-.64,0l-.45,0-2.69,0-6.51,0c-2.68,0-4.92,0-7,.07h-.24c-1,0-1.64-.15-1.88-.45s-.31-.78,0-2.16c1.12-4.6,2.2-9.29,3.23-13.83,1.1-4.82,2.24-9.8,3.44-14.68a7.86,7.86,0,0,0-1.8-7.63c-1.62-1.88-3.2-3.85-4.72-5.76s-3-3.75-4.55-5.57C65.11,93.86,65,92.71,66,90.91c2.69-4.92,5.34-10,7.9-14.89,5.39-10.31,11-21,17.29-30.89,3.8-6,5.15-12.38,6.46-18.6A87.18,87.18,0,0,1,100.28,16a54.18,54.18,0,0,0,2-8.94c.34-2,1.15-2.67,3.35-2.7,11.4-.12,23-.34,34.2-.55l6.94-.14q34.89-.65,69.79-1.34c1.29,0,2.6-.11,3.86-.18S223.28,2,224.68,2h.46c1.48,0,1.91.11,2,.21a8.19,8.19,0,0,1-.49,2.37l-8.16,27.09Q215,43.33,211.48,55c-4.95,16.46-9,30-12.79,42.67-.69,2.3-1,3.46-.38,4.33s1.88.88,4.11.88H244a7.49,7.49,0,0,0,.81,0,5.31,5.31,0,0,1,.68,0c.45,0,.51.11.56.22s0,.4-.61,1.07a7.16,7.16,0,0,0-.57.65q-11.52,15.33-23,30.65l-19.46,25.87-24.63,32.83-25.87,34.47C134.93,251.11,117,275,93.62,306c-.12.16-.24.32-.35.49a6,6,0,0,1-.81,1C92.61,306.41,92.77,305.36,92.92,304.32Zm20-108.08-14.66,95,2,.63,5.28-7q7.53-10.05,15.08-20.08a5.54,5.54,0,0,0,.88-4.51c-.3-1.95-.61-3.9-.91-5.85-.76-4.94-1.55-10.05-2.39-15.06a9.2,9.2,0,0,1,.65-5.54c1-2.29,2-4.64,3-6.9,1.4-3.27,2.85-6.64,4.37-9.9.53-1.14,1.06-2.6.39-3.78-.48-.85-1.46-1.34-3-1.51a3.67,3.67,0,0,1-2.76-1.21c-.47-.69-.5-1.77-.09-3.23a3.12,3.12,0,0,0-.21-2.73,2.39,2.39,0,0,0-1.93-.93c-1.15-.06-1.5-.61-1.94-2.21-.3-1.09-.65-2.18-1-3.24-.14-.47-.29-.93-.43-1.39L115,196ZM127.05,223c-1.82,4.28-3.71,8.71-5.51,13.09a5.61,5.61,0,0,0-.08,2.87c.79,5.26,1.63,10.56,2.36,15.12a3,3,0,0,1,0,.43,2,2,0,0,0,1.29,2.18,1.69,1.69,0,0,0,.58.1,2.18,2.18,0,0,0,1.78-1.29,2.4,2.4,0,0,1,.21-.31q2.7-3.54,5.39-7.1l3.07-4a3.84,3.84,0,0,0,.9-3.37q-2.2-8.15-4.44-16.28l-1.59-5.8-2-.15Zm9.49-8.86a2.55,2.55,0,0,0-2.15.88,2.81,2.81,0,0,0-.26,2.53q2.38,8.68,4.79,17.38c.34,1.25.94,1.89,1.76,1.89h0a2.49,2.49,0,0,0,1.83-1.23l2-2.76,4.43-6a3.53,3.53,0,0,0,.51-3.09c-1.55-6.36-5.66-9.59-12.21-9.59h-.74Zm9.83-7.14.2.56.78,2.26c.6,1.76,1.22,3.58,1.93,5.34a13.42,13.42,0,0,1,.45,1.39c.5,1.69,1.11,3.8,3.1,3.9h.11c1.57,0,2.49-1.57,3.31-3a11.53,11.53,0,0,1,1-1.59,2.6,2.6,0,0,0,.7-2,2.8,2.8,0,0,0-1.28-1.89l-6.05-4.35-2.79-2Zm-5.84,4.22a3,3,0,0,1,.65.12,3.93,3.93,0,0,0,.93.15,1.74,1.74,0,0,0,1.6-1c.72-1.32-.25-3.31-.89-4.38-1-1.74-2.84-3.77-4.5-3.77h-.09c-1.62.07-3.26.18-4.85.29-1.95.14-4,.28-6,.34a3.08,3.08,0,0,0-3.27,2.9c-.45,2.4,1.46,2.92,2.49,3.2l.09,0a70.13,70.13,0,0,0,9.63,1.67c1.28.15,2.5.3,3.71.49l.16,0,.17,0ZM141,199a8.85,8.85,0,0,1,5.69,1.91c2.08,1.61,4.25,3.15,6.36,4.64,1.65,1.16,3.35,2.37,5,3.6a4.08,4.08,0,0,0,2.4,1,3.39,3.39,0,0,0,2.67-1.75c1.79-2.58,3.67-5.07,5.58-7.41a3.47,3.47,0,0,0,1-2.86c-.27-1.08-1.41-1.69-2.37-2.09-5.63-2.36-11.32-4.84-16.83-7.23-2.87-1.24-5.74-2.49-8.61-3.72a12.28,12.28,0,0,0-1.72-.56l-.68-.19-.25-.08-.26.08-.93.26c-.65.19-1.27.36-1.88.56L133,186.15c-3.7,1.21-7.53,2.46-11.27,3.75-.24.09-.51.15-.79.23a4,4,0,0,0-2.76,1.6,3.13,3.13,0,0,0-.06,2.53,14.17,14.17,0,0,1,.34,1.39c.4,1.9.94,4.49,4.41,4.49a7.51,7.51,0,0,0,.8,0c2.91-.29,5.9-.46,8.78-.61,2.41-.14,4.89-.27,7.34-.49C140.17,199,140.58,199,141,199Zm7.53-28.81c-2.81,0-3.88,2.39-6.22,7.62l-.06.12a3.71,3.71,0,0,0-.33,2.83,3.29,3.29,0,0,0,2,1.74c7.84,3.34,15.79,6.77,23.49,10.09l3.12,1.35a4.7,4.7,0,0,0,1.77.44,2.54,2.54,0,0,0,2.08-1.09c1.65-2.16,3.28-4.32,4.94-6.51l2.76-3.66-1.16-.4c-6.4-2.2-12.51-4.82-18.41-7.35-2.22-.95-4.43-1.89-6.66-2.82l-.21-.09C152.18,171,150.12,170.14,148.5,170.14Zm-45-12.62a3.25,3.25,0,0,0-.69.08c-2.06.43-5.8,5.72-5.49,7.75.52,3.41,1.07,6.81,1.62,10.22.72,4.51,1.47,9.18,2.15,13.77.1.7.42,2.83,2.52,2.83a5.67,5.67,0,0,0,1.82-.38c2.43-.84,4.93-1.63,7.34-2.4q2.27-.7,4.5-1.44c4.86-1.58,5.1-2,4.37-6.91l0-.08c-.18-1.23-.52-3.52-3.05-3.52l-.49,0a4.21,4.21,0,0,0-3,1.33,3.19,3.19,0,0,0-.48,2.57,1.33,1.33,0,0,1-.09,1,2.5,2.5,0,0,1-1.48.53l-.39,0c-.5,0-1-.1-1.21-1.27-.14-.84-.29-1.68-.44-2.52l-.42-2.38a1.51,1.51,0,0,1,.11-1.07,1.7,1.7,0,0,1,1.09-.46l2.65-.42c1.34-.22,2.73-.45,4.1-.6,1.16-.12,2.1-.27,2.85-.39a13.44,13.44,0,0,1,1.75-.22c.53,0,.64,0,1.21,3.63.07.43.15.91.23,1.44s.14.85.22,1.27c.12.7.23,1.4.34,2.1a2.45,2.45,0,0,0,2.31,2.38h.32c3.35,0,9.47-3.51,10.9-6.27,1.24-2.36,2.47-4.74,3.69-7.11,3-5.82,6.14-11.85,9.33-17.7,3-5.59,3.58-10.44,1.69-15.27a4.91,4.91,0,0,1-.18-.58c-.24-.83-.64-2.22-2.11-2.22a2.68,2.68,0,0,0-.85.15c-1.37.46-2.85.8-4.28,1.13-4.13.94-8.4,1.92-11.45,5.9-1.21,1.59-2.61,3.1-4,4.57-.73.79-1.46,1.59-2.17,2.4-2.13,2.42-4.25,4.85-6.54,7.5l-5.44,6.24,8.36-2.93,11.24-4,.27-.09a5.1,5.1,0,0,1,1.53-.4c.22,0,.64,0,1.07,1.13a2,2,0,0,1,.17,1.38c-.19.4-.92.64-1.69.9l-.4.14-9.84,3.47-4.57,1.63.08,2.2,1-.11,3.16-.35c2.5-.29,5.08-.58,7.61-.81l.65-.07a11.45,11.45,0,0,1,1.24-.1c.83,0,1.43.12,1.56,1.67a1.82,1.82,0,0,1-.21,1.3c-.28.32-1,.34-1.75.35-.36,0-.74,0-1.09.06-1.54.2-3.11.33-4.64.46s-3.11.27-4.66.46a26.89,26.89,0,0,1-3.36.22c-5.67,0-9.64-2.09-12.51-6.59a29,29,0,0,0-2.41-3.14c-.24-.29-.49-.58-.72-.87A3.71,3.71,0,0,0,103.53,157.52Zm52.64-.3c-3.47,0-4.12,1.34-6.06,5.32l-.17.34a3.64,3.64,0,0,0-.4,2.78,3.74,3.74,0,0,0,2.3,1.86c8.2,3.32,16.5,6.79,24.52,10.15l1.09.46a10.05,10.05,0,0,0,3.45.82h.21l.9,0c1.68,0,3.26-.06,4.41-1.6,2.59-3.49,5.26-7,7.84-10.42l.59-.77a3.08,3.08,0,0,0,.77-2.29,2.49,2.49,0,0,0-1.17-1.63c-2.09-1.39-4.25-2.83-7.14-2.83a9.41,9.41,0,0,0-1.81.18c-.81.16-1.64.38-2.44.6a17.35,17.35,0,0,1-4.39.81,5.72,5.72,0,0,1-4.34-1.89,2,2,0,0,0-1.47-.46h-.29l-3.89-.38c-3.1-.31-6.3-.63-9.46-.86C158,157.28,157,157.22,156.17,157.22Zm-29.76-12.8c-6,1.12-11.36,4.22-16.91,9.74a2.7,2.7,0,0,0-.91,1.9,3.81,3.81,0,0,0,1.5,2.57,6.35,6.35,0,0,1,.81.92A2.5,2.5,0,0,0,113,161a2.44,2.44,0,0,0,1.84-1l8.78-10,5.31-6.06Zm69.37.7c-.73,0-1.6.43-1.6,2.48,0,.31,0,.62,0,.93,0,1.76.06,3.42-1,4.84l-.11.15a3.46,3.46,0,0,0-1,2.52,2.27,2.27,0,0,0,1,1.53c.3.22.6.45.89.69a6.82,6.82,0,0,0,4.25,1.93h.27c1.28-.07,6.25-7.2,6.26-8a2.56,2.56,0,0,0-1.36-2.12l-.06-.05-2.05-1.44c-1.24-.87-2.53-1.78-3.77-2.69A3.08,3.08,0,0,0,195.78,145.12Zm-16.5-52.57a7.46,7.46,0,0,0-5.8,2.67c-3.14,3.41-6.13,6.45-9.15,9.28a5.53,5.53,0,0,0-1.68,6.1c3.59,13.4,7,26.61,10.52,40.09,1,3.87,2.88,6.08,5.75,6.75a7.41,7.41,0,0,0,1.66.18c3.52,0,7.74-2.28,9.4-5.09a9.48,9.48,0,0,0,.92-5.54l0-.71a7.73,7.73,0,0,1,1.89-5.67c2.56-3.06,5-6.27,7.43-9.37l2.81-3.63.23-.28a4.62,4.62,0,0,0,1.4-3.74c-.78-4.43-1.71-9.69-2.76-15a2.87,2.87,0,0,0-3.09-2.37,6.63,6.63,0,0,0-.85.07,2.3,2.3,0,0,0-1.7.91,2.82,2.82,0,0,0-.16,2.33c0,.15.07.31.09.45.55,3.37,1.17,6.88,1.85,10.45.23,1.23,0,1.63-1.18,1.85a3,3,0,0,1-.63.07c-.53,0-1-.1-1.25-1.28-.15-.8-.33-1.6-.51-2.37a28.36,28.36,0,0,1-.85-5.15c-.18-5.44-3.6-8.56-7.27-11.12a6.53,6.53,0,0,0-3.76-1.24,6.42,6.42,0,0,0-4.86,2.33c-.44.51-.86,1-1.26,1.55a22.22,22.22,0,0,1-2.32,2.64c-3,2.69-1.82,5.56-.42,8.27l.79,1.53,1.77-3.44c.62-1.2,1.18-2.28,1.73-3.37,1.66-3.31,2.29-4,3.51-4a14.73,14.73,0,0,1,3.83.9c1.24.4,1.37.73,1.17,1.65-.31,1.48-.58,1.59-.93,1.59a1.89,1.89,0,0,1-.56-.1,5.27,5.27,0,0,0-1.4-.22c-2.16,0-3.11,1.78-3.64,3.12-.28.71-.64,1.41-1.09,2.31-.24.48-.51,1-.81,1.63l-1.33,2.75,2.6-1.61c2.64-1.64,4.09-2.54,5.07-2.54s1.83.89,4,3.1l.29.31a8.85,8.85,0,0,0,.87.86c.62.53.92.94.93,1.26s-.4.9-.76,1.24a1.94,1.94,0,0,1-1.11.68c-.39,0-.93-.52-1.45-1-1.26-1.31-2.37-2.18-3.66-2.18s-2.35.81-3.71,2.11c-.32.3-1.16,1.1-.91,2s1.33,1.17,1.8,1.28a6.45,6.45,0,0,0,1,.15c1.08.13,1.37.24,1.51.78.27,1,.59,2,.89,3a25.87,25.87,0,0,1,1.61,7.9c0,1.19-1.17,1.94-3,3a14.44,14.44,0,0,0-2.66,1.84l-.2.15a2.34,2.34,0,0,1-1.23.64c-.27,0-.58-.23-.92-.68a2,2,0,0,1-.58-1.39,1.8,1.8,0,0,1,.83-1c.66-.46,1.28-1,1.88-1.47.28-.23.56-.46.85-.68,2.06-1.64,1.46-3.6,1-5a8.52,8.52,0,0,1-.32-1.25,3.34,3.34,0,0,0-3.38-3.17h-.27l-.63,0c-3.39,0-5-1.77-5.39-5.92a10.78,10.78,0,0,0-.89-3.61c-3-6.37-1.76-11.59,4.17-17.45a11.58,11.58,0,0,1,8-3.7l.55,0c2.47,0,4.2,1.34,6.21,3.1a4.31,4.31,0,0,1,.41.43,3.14,3.14,0,0,0,2.17,1.33,2,2,0,0,0,1.36-.59A4,4,0,0,0,193.9,97c-1.63-2.37-3.59-4.56-6.94-4.56a9.3,9.3,0,0,0-1.27.1,15.85,15.85,0,0,1-2.5.17c-1.06,0-2.13-.07-3.22-.15ZM159.79,139.7a2.48,2.48,0,0,0-2.09.78,2.38,2.38,0,0,0-.15,2.1,8.67,8.67,0,0,1-1.29,8.06,2.21,2.21,0,0,0-.45,2.25A2.37,2.37,0,0,0,158,154c1.64.12,3.32.3,5,.47l2.13.22c.82,0,1.46.06,2,.06a3.39,3.39,0,0,0,2.78-.83c.7-.92.39-2.16-.3-4.89l-.55-2.11c-1.71-6.79-2-7.06-8.82-7.23ZM112.6,126.86a3.85,3.85,0,0,0-3.37,1.8q-2.58,3.9-5.18,7.79-4.39,6.59-8.77,13.19l-.13.18a1.85,1.85,0,0,0,.29,2.86c1.29,1,4.32,1,5.22,1s4.25-.09,5.65-1.22c3.26-2.64,6.63-5.43,10.31-8.55,2.65-2.24,5-3.9,8.15-4.69,4.8-1.21,9.5-2.62,14.47-4.1,2.08-.62,4.19-1.26,6.36-1.89l2.31-.67-2.2-1c-.34-.15-.59-.28-.8-.38a3.45,3.45,0,0,0-1.07-.4l-30.52-3.93A6.09,6.09,0,0,0,112.6,126.86Zm93.92,2.78a2.66,2.66,0,0,0-2.08,1.26l-.1.12-1.57,2c-.64.81-1.27,1.61-1.91,2.4-2.14,2.67-3.21,4-3,5.45s1.6,2.46,4.38,4.45l.06,0,1.15.83c1.81,1.32,2.71,2,3.7,2,1.23,0,1.92-.94,3.3-2.82.3-.41.64-.87,1-1.39,4.74-6.24,4.67-6.8-1.46-11.93-.24-.2-.47-.42-.7-.65a6,6,0,0,0-2.54-1.7l-.13,0Zm-79.11-33a3.18,3.18,0,0,0-1.26.37l-1.89.83c-5.2,2.29-10.57,4.66-15.84,7.05a6.26,6.26,0,0,0-2.18,1.83q-4.35,5.26-8.66,10.54l-4.77,5.82a3.92,3.92,0,0,0-1.21,3.57c.82,3.22,1.65,6.44,2.57,10L95.81,143l1.09-1.63c.92-1.37,1.82-2.62,2.69-3.84a54,54,0,0,0,4.73-7.4c2.25-4.57,5-6.69,8.77-6.69a13.2,13.2,0,0,1,3.79.61,4.15,4.15,0,0,0,1,.16l.37,0,7.09,1,22.47,3a4.86,4.86,0,0,0,.72.06,2.14,2.14,0,0,0,1.72-.68,2.76,2.76,0,0,0,.42-2.27c-.51-3.39-1.34-6.87-5.24-8.82a27.69,27.69,0,0,1-4.25-2.82l-1.54-1.13c-2.66-1.9-4.12-3-4.53-4s0-2.7.9-5.88l0-.08c.33-1.23.55-2.21.08-2.83a1.11,1.11,0,0,0-.88-.43H135a6,6,0,0,1-.94.07c-2.06,0-3.73-1.08-5.5-2.23l-.53-.34A1.21,1.21,0,0,0,127.41,96.62ZM86.27,142.18c.68,0,1.36,0,2,0h.16a3,3,0,0,0,2.54-.95,3.17,3.17,0,0,0,.25-2.84c-1.41-5.27-2.56-9.9-3.52-14.16a14.69,14.69,0,0,0-3.84-7.17,2.64,2.64,0,0,1-.24-.32A2.08,2.08,0,0,0,82,115.65h-.16a2,2,0,0,0-1.73,2c0,.12,0,.24-.06.35-.48,2-.94,4.09-1.41,6.14-.73,3.25-1.49,6.6-2.31,9.88l0,.17c-1,3.81-1.38,5.55-.44,6.75s2.8,1.21,6.85,1.21h3.6Zm122-36a2.92,2.92,0,0,0-2.43.94,3.7,3.7,0,0,0-.34,3.12l.14.58a43.47,43.47,0,0,1,1.23,6.92c.39,6.31,3.31,11.34,8.91,15.38a3.85,3.85,0,0,0,2.14.93,2.7,2.7,0,0,0,2.1-1.34c2.67-3.71,5.11-7,7.45-9.93,1.67-2.12.7-3.76-.32-4.95L226,116.44c-1.61-1.86-3.28-3.78-4.75-5.78-1.62-2.2-3.88-4.72-7.08-4.72a6.7,6.7,0,0,0-1.75.24H211l-1,0c-.45,0-.8,0-1.13,0Zm-52.5,15c-1.75,0-2.29.47-2.33,2-.11,4.61,2.13,6.55,7.75,6.7h.67a2,2,0,0,0,1.51-.52,2.28,2.28,0,0,0,.52-1.71c-.11-4.45-2-6.33-6.41-6.49C156.74,121.16,156.18,121.14,155.75,121.14Zm1.59-3.46.3.09a3.8,3.8,0,0,0,1.19.24,1.93,1.93,0,0,0,1.91-1.63,5.79,5.79,0,0,0-1.11-4.91A4.69,4.69,0,0,0,156,109.4a3.65,3.65,0,0,0-.74.08,12.46,12.46,0,0,1-2.38.28c-3.27,0-5.3-1.86-6.56-6a3.9,3.9,0,0,0-.54-1.08,7.44,7.44,0,0,1-.71-1.57c-.49-1.3-1.09-2.91-2.7-2.91h-.18c-2,.15-2.34,2-2.63,3.41a6.44,6.44,0,0,1-.48,1.68c-1.4,2.69-.72,4.91,2,6.6,2.58,1.6,5.36,3.47,8.73,5.89a9.69,9.69,0,0,0,5.86,2,10.86,10.86,0,0,0,1.37-.09l.27,0ZM228,106.19h-2.1c-1.14,0-1.87.37-2.18,1a2.18,2.18,0,0,0,.58,2.31c.71.9,1.46,1.8,2.19,2.67l1,1.15c1.64,2,2.39,2.89,3.48,2.89s1.85-1,3.32-2.87c.37-.48.73-.94,1.1-1.39.53-.66,1.08-1.34,1.59-2a4,4,0,0,1,.28-.32,2.19,2.19,0,0,0,.72-2.37,1.75,1.75,0,0,0-1.79-1.12l-.52,0-.36,0-1.75,0h-3.23v0ZM145.37,25.13a8.14,8.14,0,0,0-3.17.67C129.29,31.15,115.08,37,97.49,44a9.42,9.42,0,0,0-5.13,4.63c-4,7.46-8,15-12,22.33Q76,79.16,71.55,87.34c-.3.57-.57,1.06-.82,1.51-2.06,3.76-2.18,4.2.37,7.23.37.45.81,1,1.32,1.61s1,1.32,1.57,2,1.26,1.61,1.91,2.41q3.19,4,6.44,7.94l3.39,4.18.7-.81a2.52,2.52,0,0,0,.56-2.65c0-.08,0-.16-.06-.23-.37-1.75-.73-3.51-1.1-5.26-1.18-5.67-2.41-11.54-3.69-17.3a3.33,3.33,0,0,1,1-3.61c2.65-2.52,5.27-5.13,7.82-7.67l2-2c6.53-6.48,6.59-7,1.67-14.78-.64-1-.59-1.37-.56-1.45s.23-.37,1.42-.68c4.35-1.14,8.7-2.38,12.93-3.7,1.27-.4,2.61-.73,3.9-1a34.87,34.87,0,0,0,8.4-2.9c5.28-2.91,10.49-5.91,16.27-9.25,5-2.9,7.16-4.08,9.57-4.08,2,0,4.34.81,8.57,2.28l.6.2c9.17,3.17,18.52,6.3,27.57,9.32,6.75,2.25,13.72,4.59,20.57,6.92a5.68,5.68,0,0,0,1.84.35c2.07,0,2.75-1.74,3.08-3A63.9,63.9,0,0,1,211,45.51a3.8,3.8,0,0,0,.13-3.06,4.13,4.13,0,0,0-2.87-1.73c-15.59-3.88-31.43-7.89-46.75-11.76l-14-3.54A9,9,0,0,0,145.37,25.13ZM107.21,82.9l-.44,0a3.58,3.58,0,0,0-2.68,2.78l-.35,1.08q-1.76,5.37-3.49,10.75c-.88,2.76-1.74,5.52-2.66,8.45l-1.86,5.91,1.75-.72a7.21,7.21,0,0,0,3.51-3.06A20.42,20.42,0,0,1,111.3,100c3.14-1.15,6.21-2.58,9.18-4,1.32-.61,2.64-1.22,4-1.81l.33-.14c.8-.33,2.31-.94,1.73-3-.92-3.34-2.67-5-5.35-5a9.65,9.65,0,0,0-2.54.39l-.88.22a11.94,11.94,0,0,0-1.92.57,7.46,7.46,0,0,1-2.77.67c-1,0-2.32-.32-3.24-2.82C109.1,83.18,107.88,82.9,107.21,82.9Zm-6.16-10.84a3.07,3.07,0,0,0-2,1.1C95.21,77,91.4,80.74,87.52,84.55a4.77,4.77,0,0,0-1.75,4.38c1.07,5.39,2.2,10.86,3.3,16.15l1.31,6.33h2l.21-.57c.1-.26.2-.52.31-.78.22-.57.46-1.17.66-1.78l.19-.58c2.5-7.78,5.08-15.82,7.59-23.74.54-1.69,1.08-2.71,2.39-3.2a2.61,2.61,0,0,0,1.71-1.56,2.82,2.82,0,0,0-.53-2.44c-.55-.84-1.05-1.76-1.53-2.65l-.29-.54A2.46,2.46,0,0,0,101.05,72.06ZM154,106.32a6.3,6.3,0,0,0,1.34.14c3,0,5.06-2.21,7.07-4.35.31-.33.62-.66.94-1l.08-.09c7.81-8,7.84-8.5,1.18-17.49l-.13-.2a3.68,3.68,0,0,0-3.24-1.92,4.91,4.91,0,0,0-1.17.14c-5,1.2-9.92,2.31-15.78,3.64a3,3,0,0,0-2.18,1.41,2.78,2.78,0,0,0,.3,2.49c2,3.87,4,7.82,5.88,11.65l1.82,3.64a3.18,3.18,0,0,0,3.11,2h0A7.27,7.27,0,0,0,154,106.32ZM141.53,68.44a3.5,3.5,0,0,0-.89.11C135,69.87,129.32,71.18,124,72.39a2.94,2.94,0,0,0-2.17,1.41,2.77,2.77,0,0,0,.35,2.5c1.89,3.46,3.77,7,5.59,10.42L131.11,93a3.85,3.85,0,0,0,3.43,2.45H135l.7-.14a8.19,8.19,0,0,1,1.33-.22c1.65-.1,2.66-.57,3.1-1.43.59-1.17-.15-2.55-.76-3.49A21.67,21.67,0,0,1,138.2,88a21.3,21.3,0,0,0-1-2c-.74-1.26-.71-1.76-.62-1.94s.38-.5,1.78-.72c1.83-.29,3.64-.75,5.4-1.19,1.32-.33,2.69-.67,4-.93a3,3,0,0,0,2.44-1.52c.37-1-.26-2-.85-2.79-1.45-1.9-2.87-3.87-4.24-5.78l-.71-1A3.56,3.56,0,0,0,141.53,68.44Zm47.73,21.25c2.19,0,3.39.53,4.29,1.9l.07.11a2.07,2.07,0,0,0,1.69,1.21h0a2,2,0,0,0,1.25-.51,6.6,6.6,0,0,0,2-6.08,6.4,6.4,0,0,0-3.6-5.14c-12.09-5.05-25-10.41-40.54-16.87-.77-.31-1.55-.56-2.24-.78l-.81-.26-.21-.07-.21,0c-1.55.25-3.48.57-4.47,2s.08,2.76.76,3.48a5.61,5.61,0,0,1,.55.65c.37.57.79,1.1,1.19,1.62a13.87,13.87,0,0,1,1.47,2.11c2,3.87,4.49,5.75,7.56,5.75a10.21,10.21,0,0,0,4.3-1.08,2.74,2.74,0,0,1,1.12-.29c.48,0,1.21.17,2.11,1.65,1,1.73,2.17,3.44,3.26,5.1.78,1.18,1.55,2.36,2.31,3.55a3.82,3.82,0,0,0,3.56,2h.24c2.36-.09,4.69-.1,7.26-.1h.93c2,0,3.9,0,5.82,0ZM120.11,54.17a4.36,4.36,0,0,0-1.34.22c-4.29,1.31-8.69,2.53-13,3.71l-3.47,1A3.23,3.23,0,0,0,100,60.7a2.8,2.8,0,0,0,.46,2.54q3.75,6.25,7.47,12.52l3.84,6.43a3.39,3.39,0,0,0,2.86,1.89h0a4.19,4.19,0,0,0,.5,0c1.9-.09,3.94-.38,4.76-1.8s.07-3.25-.77-4.86l-.47-.91a36.65,36.65,0,0,0-2.13-3.8c-.51-.76-.61-1.22-.54-1.4s.25-.39,1.46-.65c1.94-.41,3.91-.87,5.8-1.31s3.61-.83,5.42-1.22c.87-.19,1.92-.52,2.24-1.46a2.61,2.61,0,0,0-.77-2.43c-.85-1-1.68-2.09-2.5-3.14-1.28-1.61-2.59-3.27-4-4.86A4.71,4.71,0,0,0,120.11,54.17Zm32.78,6.14c1.78.7,3.45,1.37,5.14,2.07l6.74,2.81c10.52,4.38,21.4,8.91,32.07,13.44a5.38,5.38,0,0,0,2.1.52c2.08,0,2.65-2.11,2.87-2.91,1.18-4.33,2.51-8.74,3.94-13.08,1-2.89-.71-3.88-2.48-4.47-16.56-5.54-34-11.42-54.93-18.5a5.91,5.91,0,0,0-1.87-.33,5.27,5.27,0,0,0-2.7.79c-2.19,1.29-4.45,2.57-6.64,3.8-1.92,1.09-3.85,2.18-5.77,3.3-3.26,1.9-4.9,2.85-5.18,4.41s1,3.15,3.3,6a25.68,25.68,0,0,1,1.57,2.34c1.31,2.11,2.67,4.3,5,4.75a5.15,5.15,0,0,0,1,.09h0c2,0,3.9-1.1,5.75-2.17a26.6,26.6,0,0,1,2.61-1.38l5.41-2.33Zm66.35-55-1.17,0Q209,5.55,200,5.8c-8.36.22-17,.46-25.51.63-6.52.13-13.15.22-19.57.3-9.63.13-19.58.27-29.37.54l-5.38.17c-3.75.11-7.62.24-11.43.3-1.1,0-3.17,0-3.72,2.41-1.59,6.81-3.18,13.62-4.83,20.71L98,40.31l1.55-.58,1.58-.58c.81-.3,1.46-.53,2.08-.79L111.45,35c9.85-4.06,20-8.25,30-12.44a8.82,8.82,0,0,1,3.46-.73,10.36,10.36,0,0,1,2.6.35q13.78,3.51,27.56,7c11.08,2.79,22.53,5.67,33.79,8.55a8.07,8.07,0,0,0,2,.3c2.26,0,3-1.71,3.5-3.38,1.51-5.44,3.18-10.94,4.79-16.26q1.25-4.11,2.48-8.22c.6-2,.93-3.14.31-4S220.38,5.32,219.24,5.32Z" transform="translate(-65.32 -2)"/></svg>